<!-- icon666.com - MILLIONS OF FREE VECTOR ICONS --><svg viewBox="0 0 50 50" xmlns="http://www.w3.org/2000/svg" xmlns:xlink="http://www.w3.org/1999/xlink"><linearGradient id="linear-gradient" gradientUnits="userSpaceOnUse" x1="-1.15" x2="47.15" y1="44.44" y2="-4.52"><stop offset="0" stop-color="#2481eb"></stop><stop offset="1" stop-color="#061a90"></stop></linearGradient><linearGradient id="linear-gradient-2" x1="6.12" x2="54.42" xlink:href="#linear-gradient" y1="51.61" y2="2.65"></linearGradient><linearGradient id="linear-gradient-3" x1="2.39" x2="50.68" xlink:href="#linear-gradient" y1="47.92" y2="-1.03"></linearGradient><g id="Layer_2" data-name="Layer 2"><path d="m25 23.86a5.93 5.93 0 1 0 -5.93-5.93 5.94 5.94 0 0 0 5.93 5.93zm0-9.86a3.93 3.93 0 1 1 -3.93 3.93 3.93 3.93 0 0 1 3.93-3.93z" fill="url(#linear-gradient)"></path><path d="m28.47 25.14h-6.94a5.75 5.75 0 0 0 -5.74 5.75v5.11a1 1 0 0 0 1 1h16.42a1 1 0 0 0 1-1v-5.11a5.75 5.75 0 0 0 -5.74-5.75zm-6.58 2h6.22v7.86h-6.22zm-4.1 3.75a3.73 3.73 0 0 1 2.1-3.35v7.46h-2.1zm14.42 4.11h-2.1v-7.46a3.73 3.73 0 0 1 2.1 3.35z" fill="url(#linear-gradient-2)"></path><path d="m25 4a21 21 0 1 0 21 21 21 21 0 0 0 -21-21zm0 40a19 19 0 1 1 19-19 19 19 0 0 1 -19 19z" fill="url(#linear-gradient-3)"></path></g></svg>